<?xml version="1.0" encoding="utf-8"?>
<!-- Generator: Adobe Illustrator 25.2.3, SVG Export Plug-In . SVG Version: 6.00 Build 0)  -->
<svg version="1.1" id="Layer_1" xmlns="http://www.w3.org/2000/svg" xmlns:xlink="http://www.w3.org/1999/xlink" x="0px" y="0px"
	 viewBox="0 0 2765.9 611.5" style="enable-background:new 0 0 2765.9 611.5;" xml:space="preserve">
<style type="text/css">
	.st0{fill:#FFFFFF;}
	.st1{fill:#00FBE2;}
</style>
<g>
	<path class="st0" d="M1305.7,472.9c-75.4,0.6-129.4-52.8-130-127.6c-0.6-75.7,54.5-129,131.8-129.6c75.4-0.6,126,50,126.5,117.1
		c0.1,10.5-0.8,22.4-3.6,35.7l-173.9,1.3c-4.8,0-7.2,3.4-7.2,7.2c0.2,19,26.8,34.1,59.2,33.8c21.7-0.2,46.3-4.6,54.4-22.3l70.5-0.5
		C1416.1,448.2,1366.1,472.4,1305.7,472.9 M1248,316.2l109.7-0.8c3.9,0,6.3-2.4,6.2-5.8c-0.1-18.1-22-34.6-54.4-34.3
		C1278.1,275.5,1254.5,290.4,1248,316.2"/>
	<path class="st0" d="M1613.4,472.2c-62.3,0.5-98.3-32.6-98.9-99.2l-0.7-85.2l-60.4,0.5l-0.5-64.7l43-0.3
		c11.1-0.1,17.3-6.3,17.3-17.3l-0.5-67.1h72.5l0.7,83.7l86.5-0.7l0.5,64.7l-86.5,0.7l0.6,77.6c0.2,27.6,12.4,38,40.9,37.8
		c11.1-0.1,25.6-0.7,45.9-3.2l0.5,68.6C1654.5,470.9,1631.8,472.1,1613.4,472.2"/>
	<path class="st0" d="M1779.9,444.7l1,128.5l-72.5,0.6l-1.8-228.5c-0.6-73.8,56.5-129,132.3-129.6c75.4-0.6,132.8,53.3,133.4,127.5
		c0.6,74.3-54.1,129-122.2,129.5C1822.6,473,1795.5,463.7,1779.9,444.7 M1840.4,403.3c32.8-0.3,58.7-26.2,58.5-59.5
		c-0.3-33.3-26.6-58.8-59.4-58.6c-33.3,0.3-59.7,26.2-59.4,59.5C1780.3,378.1,1807.1,403.6,1840.4,403.3"/>
	<path class="st0" d="M1999.4,344.6c-0.6-74.3,56-129,133.8-129.6c75.4-0.6,131.3,51.8,131.9,122.8l1,134.4h-66.7l-0.3-42
		c-18.1,29.2-44.6,41.8-75.5,42C2054.5,472.7,2000,418.9,1999.4,344.6 M2131.8,284.6c-34.3,0.3-59.2,25.7-59,59.5
		c0.3,33.8,25.6,58.8,59.9,58.6c34.8-0.3,59.2-25.7,59-59.5C2191.4,309.3,2166.5,284.3,2131.8,284.6"/>
	<path class="st0" d="M2465.3,223.4l0.6,70.5l-30.9,0.2c-35.7,0.3-58.2,26.6-58,61.9l0.9,116.2h-72.5l-0.9-115.7
		c-0.8-96.2,49.7-132.3,129.9-132.9L2465.3,223.4z"/>
	<polygon class="st0" points="2493.8,138.8 2496.8,472.2 2569.2,472.2 2566.3,138.8 	"/>
	<path class="st0" d="M2765.9,472.2L2668.3,350c-4.4-5.2-6.3-8.1-6.4-10.9c0-3.3,1.9-6.7,6.2-12l88.6-104.5l-87,0.7l-72.8,87.2
		c-14.4,17.3-15.3,21.5-15.2,31.5c0.1,9,2.5,15.2,15.2,31.8l75.6,98.4H2765.9z"/>
	<path class="st0" d="M1137.8,139.7h-72.9l0,247.8c0.1,7.1-3.8,10-9.6,10.1c-4.8,0-7.8-2.3-10.7-9L947.9,200
		c-22.6-51.2-45.4-65.4-80.7-65.1c-49.8,0.4-79,30.1-78.6,83.9l0,253.6h72.5l0-248.5c-0.1-7.1,3.8-10,9.6-10.1c4.8,0,7.7,2.3,10.7,9
		l96.7,188.5c22.1,50.3,47.4,65.3,82.6,65.1c49.3-0.4,77.5-30.1,77.1-83.9L1137.8,139.7z"/>
</g>
<g>
	<path class="st1" d="M119.5,611.5c-31.9,0-62-12.4-84.5-34.9C12.4,554,0,523.9,0,492V119.4c0-31.9,12.4-61.9,35-84.5
		C57.5,12.4,87.5,0,119.5,0s62,12.4,84.5,34.9l203.7,203.6c14.6,14.6,22.6,34,22.6,54.6c0,19-6.8,36.9-19.2,51
		c-0.2,0.2-0.6,0.7-1.1,1.2c-4.1,4.2-10.9,4.3-15,0.2L144.1,94.8c-6.6-6.6-15.3-10.2-24.7-10.2c-10,0-19.6,4.3-26.2,11.8
		c-5.6,6.3-8.7,14.9-8.7,24V491c0,9.1,3.1,17.7,8.6,24c6.6,7.5,16.2,11.9,26.2,11.9c9.3,0,18.1-3.6,24.6-10.2l24.5-24.4
		c4.1-4.1,10.9-4.1,15,0l44.8,44.9c4.1,4.1,4.1,10.9,0,15L204,576.5C181.4,599.1,151.4,611.5,119.5,611.5L119.5,611.5
		C119.5,611.5,119.5,611.5,119.5,611.5z"/>
	<path class="st1" d="M471.4,611.5c-31.9,0-62-12.4-84.5-34.9L183.2,372.9c-15.3-15.3-23.4-35.9-22.6-57.6c0.7-18.1,8-35.3,20-48.8
		c0.1-0.1,0.1-0.1,0.2-0.2c4-4.4,10.9-4.5,15.1-0.3l250.8,250.7c6.6,6.6,15.3,10.2,24.7,10.2c10,0,19.6-4.3,26.2-11.8
		c5.6-6.3,8.7-14.9,8.7-24V120.4c0-9.1-3.1-17.7-8.6-24c-6.6-7.5-16.2-11.9-26.2-11.9c-9.3,0-18.1,3.6-24.6,10.2l-24.4,24.5
		c-4.1,4.2-10.9,4.2-15,0l-44.8-44.9c-4.1-4.1-4.1-10.8,0-15l24.4-24.5C409.5,12.4,439.5,0,471.4,0c31.9,0,62,12.4,84.5,34.9
		c22.6,22.6,35,52.6,35,84.5V492c0,31.9-12.4,61.9-35,84.5C533.4,599.1,503.4,611.5,471.4,611.5z"/>
</g>
</svg>
